<svg width="24" height="24" viewBox="0 0 24 25" fill="" xmlns="http://www.w3.org/2000/svg">
<path d="M23.7502 12.6061L20.3213 16.035C19.9861 16.3702 19.4443 16.3702 19.1091 16.035C18.7739 15.6999 18.7739 15.1581 19.1091 14.8229L21.0748 12.8572H12.8572V21.0748L14.8229 19.1091C15.1581 18.7739 15.6999 18.7739 16.035 19.1091C16.3702 19.4443 16.3702 19.9861 16.035 20.3213L12.6061 23.7502C12.282 24.0751 11.7377 24.0948 11.3931 23.7502L7.9641 20.3213C7.62892 19.9861 7.62892 19.4443 7.9641 19.1091C8.29928 18.7739 8.84106 18.7739 9.17624 19.1091L11.1428 21.0748V12.8572H2.92523L4.89089 14.8229C5.22607 15.1581 5.22607 15.6999 4.89089 16.035C4.55571 16.3702 4.01393 16.3702 3.67875 16.035L0.24978 12.6061C-0.0819729 12.2743 -0.0845446 11.7274 0.24978 11.3931L3.67875 7.9641C4.01393 7.62892 4.55571 7.62892 4.89089 7.9641C5.22607 8.29928 5.22607 8.84106 4.89089 9.17624L2.92523 11.1428H11.1428V2.92523L9.1771 4.89089C8.84192 5.22607 8.30014 5.22607 7.96496 4.89089C7.62978 4.55571 7.62978 4.01393 7.96496 3.67875L11.3939 0.24978C11.7257 -0.0819729 12.2726 -0.0845446 12.6069 0.24978L16.0359 3.67875C16.3711 4.01393 16.3711 4.55571 16.0359 4.89089C15.8679 5.05805 15.6484 5.14206 15.429 5.14206C15.2095 5.14206 14.9901 5.05805 14.8229 4.89089L12.8572 2.92523V11.1428H21.0748L19.1091 9.1771C18.7739 8.84192 18.7739 8.30014 19.1091 7.96496C19.4443 7.62978 19.9861 7.62978 20.3213 7.96496L23.7502 11.3939C24.0845 11.7274 24.082 12.2752 23.7502 12.6061Z" fill="#7209B7"/>
</svg>
